<?xml version="1.0" standalone="no"?>
<!DOCTYPE svg PUBLIC "-//W3C//DTD SVG 20010904//EN"
 "http://www.w3.org/TR/2001/REC-SVG-20010904/DTD/svg10.dtd">
<svg version="1.0" xmlns="http://www.w3.org/2000/svg"
 width="1600.000000pt" height="1600.000000pt" viewBox="0 0 1600.000000 1600.000000"
 preserveAspectRatio="xMidYMid meet">
<metadata>
Created by potrace 1.11, written by Peter Selinger 2001-2013
</metadata>
<g transform="translate(0.000000,1600.000000) scale(0.100000,-0.100000)"
fill="#000000" stroke="none">
<path d="M7550 15979 c-271 -18 -458 -35 -622 -59 -38 -6 -101 -15 -140 -21
-40 -5 -95 -14 -123 -19 -27 -5 -79 -14 -115 -20 -36 -6 -83 -15 -105 -20 -22
-4 -65 -13 -95 -20 -97 -20 -173 -37 -255 -59 -22 -6 -67 -17 -100 -25 -90
-22 -177 -45 -205 -55 -14 -5 -45 -14 -70 -21 -59 -17 -169 -51 -195 -60 -11
-4 -38 -13 -60 -19 -22 -7 -49 -16 -60 -21 -11 -5 -49 -18 -85 -30 -36 -12
-74 -25 -85 -30 -11 -4 -96 -38 -190 -75 -93 -37 -190 -76 -215 -87 -25 -11
-65 -29 -90 -40 -117 -51 -463 -222 -545 -269 -22 -12 -65 -35 -95 -52 -30
-16 -59 -33 -65 -37 -5 -4 -27 -17 -47 -29 -99 -55 -115 -65 -140 -82 -14 -11
-29 -19 -32 -19 -4 0 -47 -27 -96 -60 -49 -33 -94 -60 -100 -60 -5 0 -10 -4
-10 -8 0 -5 -12 -15 -27 -23 -16 -8 -30 -16 -33 -19 -3 -3 -54 -39 -115 -80
-60 -41 -116 -80 -123 -87 -7 -7 -26 -20 -42 -30 -17 -9 -30 -21 -30 -25 0 -4
-6 -8 -12 -8 -7 0 -27 -14 -45 -30 -18 -17 -34 -30 -37 -30 -3 0 -14 -6 -23
-14 -10 -8 -67 -54 -128 -103 -60 -48 -115 -92 -121 -98 -7 -5 -31 -26 -55
-45 -24 -19 -58 -50 -77 -67 -19 -18 -36 -33 -38 -33 -3 0 -15 -10 -28 -22
-13 -13 -74 -70 -136 -128 -184 -172 -476 -470 -542 -555 -12 -16 -32 -40 -44
-51 -11 -12 -38 -44 -60 -70 -21 -27 -44 -55 -51 -62 -7 -7 -29 -34 -50 -60
-21 -26 -40 -49 -43 -52 -15 -14 -110 -141 -110 -146 0 -4 -8 -14 -18 -23 -10
-9 -38 -45 -63 -81 -24 -36 -47 -67 -50 -70 -20 -17 -349 -511 -349 -524 0 -4
-8 -19 -19 -34 -23 -34 -112 -188 -131 -227 -8 -16 -20 -37 -26 -45 -14 -17
-254 -496 -254 -506 0 -3 -18 -44 -40 -90 -22 -47 -40 -87 -40 -90 0 -3 -9
-24 -19 -47 -79 -175 -253 -659 -311 -869 -124 -450 -174 -686 -250 -1188 -57
-378 -85 -1052 -60 -1454 6 -111 14 -203 16 -205 8 -8 363 26 511 49 203 32
198 31 403 75 104 22 225 53 395 99 65 18 348 111 380 125 11 5 58 24 105 42
47 17 89 36 95 41 5 4 15 8 22 8 7 0 36 11 65 24 29 13 82 36 118 52 68 30
418 206 483 242 58 34 104 60 144 83 21 12 50 30 65 40 14 11 29 19 32 19 19
0 506 334 514 353 2 4 8 7 13 7 5 0 40 23 77 52 78 60 265 210 272 218 3 3 21
17 41 32 20 15 91 80 158 146 67 66 143 138 169 160 26 22 57 49 68 59 12 10
34 28 50 40 16 12 49 37 74 55 240 181 558 354 875 477 61 24 119 47 130 51
11 5 38 14 60 21 22 6 51 15 65 20 301 98 664 164 1050 190 184 12 638 6 795
-11 230 -25 375 -44 455 -60 25 -5 77 -14 115 -21 39 -7 93 -18 120 -25 50
-14 50 -14 -35 -8 -47 3 -118 10 -158 15 -99 12 -633 12 -746 -1 -288 -33
-365 -45 -566 -92 -191 -45 -542 -160 -574 -189 -6 -5 -17 -9 -24 -9 -18 0
-322 -151 -362 -180 -15 -11 -31 -20 -35 -20 -3 0 -33 -18 -65 -40 -32 -22
-64 -40 -69 -40 -6 0 -11 -4 -11 -10 0 -5 -6 -10 -14 -10 -8 0 -16 -3 -18 -7
-1 -5 -39 -33 -83 -63 -44 -30 -87 -60 -95 -67 -8 -7 -42 -34 -76 -60 -211
-167 -459 -415 -653 -653 -76 -93 -72 -88 -101 -130 -14 -19 -31 -40 -37 -48
-7 -7 -29 -39 -50 -70 -21 -31 -40 -59 -43 -62 -4 -3 -62 -88 -131 -190 -68
-102 -129 -192 -136 -200 -6 -8 -46 -62 -89 -120 -43 -58 -91 -121 -106 -140
-16 -19 -32 -39 -36 -45 -149 -196 -552 -632 -692 -749 -19 -16 -64 -55 -100
-87 -276 -246 -617 -488 -942 -667 -55 -31 -304 -156 -343 -173 -115 -49 -243
-102 -291 -119 -120 -43 -321 -108 -404 -130 -47 -12 -96 -26 -110 -30 -14 -5
-70 -18 -125 -30 -55 -11 -116 -25 -136 -30 -20 -6 -51 -10 -68 -10 -36 0 -49
-20 -34 -53 5 -12 25 -67 43 -122 18 -55 38 -115 44 -133 7 -19 18 -32 28 -32
44 0 392 51 483 70 22 5 65 14 95 21 179 38 533 141 615 178 11 5 72 29 135
54 286 112 594 274 875 460 89 59 225 156 235 167 3 3 21 17 40 30 19 13 37
27 40 30 3 3 32 25 65 50 53 40 93 73 129 105 6 6 27 23 46 39 177 145 550
518 696 696 16 19 34 41 41 48 7 7 29 34 50 60 21 26 44 53 51 60 7 8 25 30
40 50 15 21 29 39 32 42 16 15 152 195 190 250 25 36 51 71 58 79 14 15 102
148 102 154 0 6 57 99 105 172 158 238 447 552 684 741 13 10 28 24 35 29 11
10 60 47 176 131 218 160 616 360 905 456 435 144 847 208 1335 208 395 0 711
-33 1125 -116 127 -26 167 -35 280 -63 22 -6 58 -14 80 -20 63 -14 185 -49
235 -66 l45 -15 -40 5 c-22 2 -69 9 -105 15 -235 40 -439 60 -760 76 -177 8
-494 -12 -700 -46 -167 -28 -206 -35 -325 -65 -118 -30 -321 -92 -370 -114
-11 -5 -47 -19 -80 -32 -64 -24 -319 -151 -395 -195 -89 -52 -317 -209 -340
-234 -3 -3 -40 -34 -83 -69 -85 -69 -323 -304 -365 -360 -15 -20 -34 -43 -42
-51 -9 -8 -31 -35 -50 -60 -19 -25 -37 -47 -41 -50 -18 -14 -249 -351 -249
-364 0 -3 -12 -22 -26 -43 -14 -21 -33 -54 -42 -73 -9 -19 -19 -37 -23 -40
-13 -9 -184 -358 -228 -465 -23 -55 -50 -120 -61 -145 -39 -92 -71 -183 -174
-495 -59 -176 -121 -356 -138 -400 -17 -44 -44 -116 -60 -160 -17 -44 -38 -98
-48 -120 -9 -22 -36 -85 -60 -140 -59 -139 -79 -182 -195 -415 -103 -206 -116
-231 -174 -328 -17 -29 -31 -55 -31 -57 0 -3 -15 -28 -33 -57 -168 -266 -212
-334 -217 -338 -3 -3 -26 -34 -51 -70 -24 -36 -50 -71 -57 -79 -7 -8 -21 -26
-30 -40 -9 -14 -24 -35 -34 -46 -9 -11 -45 -56 -79 -100 -35 -44 -66 -82 -69
-85 -3 -3 -39 -43 -80 -90 -159 -180 -351 -363 -550 -525 -67 -54 -69 -56
-145 -111 -269 -197 -568 -362 -875 -485 -85 -34 -165 -64 -178 -68 -22 -6
-21 -7 19 -56 23 -27 77 -89 121 -136 l79 -86 82 22 c78 22 191 58 322 105
208 74 541 246 760 393 542 363 1056 927 1454 1595 33 56 61 105 61 109 0 4 6
14 14 22 19 22 125 221 196 366 112 231 170 358 170 369 0 7 4 16 8 22 5 5 28
56 52 114 23 58 51 124 61 147 11 24 19 49 19 56 0 7 4 17 9 23 17 18 141 377
176 506 91 347 293 800 475 1069 22 32 40 60 40 63 0 4 82 119 108 151 4 6 19
26 32 45 14 19 27 37 30 40 3 3 41 48 85 100 117 140 284 305 425 420 30 25
57 47 60 50 26 26 293 210 306 210 3 0 18 8 32 19 135 95 523 264 757 329 117
33 186 51 240 62 33 7 76 16 95 21 68 17 87 8 25 -12 -33 -11 -69 -24 -80 -28
-11 -5 -47 -19 -80 -32 -139 -52 -291 -127 -450 -220 -22 -13 -42 -26 -45 -29
-3 -3 -17 -11 -32 -19 -16 -8 -28 -18 -28 -23 0 -4 -4 -8 -10 -8 -5 0 -31 -16
-57 -36 -27 -20 -61 -45 -77 -57 -28 -21 -50 -38 -121 -97 -37 -30 -294 -288
-315 -315 -9 -11 -45 -56 -80 -100 -61 -74 -90 -113 -115 -154 -5 -9 -13 -18
-16 -21 -5 -5 -52 -76 -76 -115 -7 -11 -30 -50 -52 -86 -47 -78 -162 -302
-210 -409 -18 -41 -42 -94 -52 -117 -10 -24 -19 -49 -19 -56 0 -7 -4 -17 -9
-23 -10 -9 -135 -387 -170 -509 -11 -38 -29 -113 -41 -165 -12 -52 -26 -111
-30 -130 -23 -93 -33 -147 -80 -405 -5 -27 -14 -90 -20 -140 -6 -49 -16 -117
-21 -150 -5 -33 -16 -123 -24 -200 -28 -254 -82 -595 -145 -920 -90 -464 -262
-1052 -423 -1445 -85 -207 -241 -538 -308 -650 -14 -25 -46 -79 -70 -120 -24
-41 -65 -107 -91 -147 -26 -40 -48 -76 -48 -82 0 -5 -4 -11 -8 -13 -4 -2 -28
-32 -52 -68 -91 -131 -236 -315 -325 -409 -143 -153 -298 -303 -388 -375 -48
-38 -48 -38 -25 -51 13 -7 52 -29 88 -49 157 -87 570 -289 680 -332 25 -9 50
-20 55 -24 12 -8 284 -116 415 -164 126 -46 361 -123 450 -148 19 -5 49 -13
65 -18 155 -44 347 -93 470 -119 55 -12 118 -26 140 -31 55 -12 202 -39 272
-50 32 -5 85 -14 117 -19 116 -20 411 -54 631 -73 202 -17 993 -17 1175 0 474
45 728 82 1100 161 86 19 371 90 445 111 56 16 100 29 135 38 114 32 313 99
580 197 71 26 234 94 327 136 23 10 44 19 46 19 14 0 440 208 552 270 28 15
81 44 119 65 38 21 105 60 148 86 44 27 81 49 83 49 23 0 576 373 669 452 6 5
34 25 62 46 62 46 106 80 198 156 39 32 93 77 121 100 27 22 72 61 100 86 27
25 72 65 100 90 143 127 602 599 677 695 12 17 38 47 57 67 18 21 41 48 50 60
8 13 26 34 38 48 13 14 49 59 81 100 31 41 67 86 79 100 13 14 23 28 23 31 0
3 10 17 21 30 12 13 32 40 45 59 13 19 56 80 95 135 76 108 79 112 190 285 97
151 142 226 211 350 14 25 43 77 65 115 42 74 283 558 283 569 0 3 16 40 35
82 19 41 35 78 35 81 0 3 12 33 26 67 14 33 30 70 35 81 51 121 201 560 257
755 76 261 178 721 212 955 51 352 67 510 85 825 18 313 19 529 3 813 l-12
218 -85 -6 c-166 -11 -476 -50 -606 -75 -175 -34 -272 -55 -360 -77 -55 -13
-116 -28 -135 -33 -19 -4 -66 -18 -105 -30 -38 -12 -83 -25 -100 -30 -80 -21
-389 -130 -480 -169 -11 -5 -36 -16 -55 -24 -19 -8 -53 -22 -75 -32 -22 -9
-49 -21 -60 -25 -48 -21 -416 -203 -470 -233 -33 -19 -86 -49 -119 -67 -32
-18 -95 -55 -140 -83 -44 -27 -102 -63 -128 -78 -78 -46 -233 -152 -236 -161
-2 -4 -8 -8 -13 -8 -8 0 -71 -45 -122 -86 -9 -8 -19 -14 -22 -14 -5 0 -215
-158 -225 -170 -3 -3 -30 -24 -60 -47 -30 -23 -68 -54 -85 -68 -16 -15 -52
-45 -80 -68 -27 -23 -104 -93 -169 -157 -66 -63 -125 -119 -131 -125 -122
-106 -335 -264 -420 -311 -11 -6 -56 -33 -100 -60 -70 -44 -303 -163 -405
-207 -55 -24 -242 -99 -270 -107 -14 -5 -70 -23 -125 -40 -101 -32 -212 -63
-295 -82 -25 -5 -63 -14 -85 -19 -474 -107 -1070 -128 -1665 -59 -47 5 -110
14 -140 19 -30 5 -86 15 -125 21 -73 11 -116 19 -225 41 -85 17 -43 24 59 10
42 -6 173 -15 291 -22 759 -40 1491 127 2110 481 302 173 536 355 810 630 247
248 405 444 650 810 164 244 344 488 475 641 16 20 39 47 49 60 124 156 498
537 666 679 30 25 63 54 74 65 12 11 38 32 58 47 20 15 42 33 50 40 7 7 40 33
73 58 33 25 66 50 75 57 88 68 373 263 386 263 3 0 18 8 32 19 85 60 546 301
577 301 2 0 33 13 67 28 35 16 90 39 123 51 33 13 69 27 80 31 11 4 36 13 55
20 19 7 44 16 55 20 22 8 181 57 230 70 184 49 370 92 463 106 24 3 45 11 48
18 3 7 -19 81 -48 166 l-53 154 -65 -3 c-36 -1 -90 -6 -120 -11 -30 -5 -91
-14 -135 -20 -44 -7 -114 -19 -155 -27 -41 -9 -93 -19 -115 -24 -64 -13 -124
-27 -205 -48 -41 -11 -86 -23 -100 -26 -14 -4 -34 -10 -45 -15 -11 -4 -69 -23
-130 -43 -60 -20 -137 -45 -170 -57 -57 -21 -79 -30 -170 -70 -22 -9 -65 -28
-95 -41 -98 -42 -434 -213 -450 -229 -3 -3 -25 -16 -50 -29 -25 -14 -71 -42
-102 -63 -31 -21 -62 -38 -67 -38 -6 0 -11 -4 -11 -8 0 -5 -19 -19 -42 -32
-24 -13 -45 -26 -48 -29 -3 -3 -34 -26 -70 -51 -36 -24 -66 -48 -68 -52 -2 -4
-10 -8 -17 -8 -7 0 -15 -4 -17 -8 -1 -5 -23 -22 -48 -39 -25 -17 -54 -39 -65
-50 -12 -10 -41 -34 -65 -53 -89 -69 -201 -165 -304 -260 -183 -168 -565 -568
-600 -628 -5 -8 -28 -36 -52 -61 -24 -25 -44 -49 -44 -53 0 -3 -18 -26 -40
-50 -22 -23 -40 -46 -40 -50 0 -4 -6 -13 -13 -20 -31 -32 -117 -149 -117 -158
0 -5 -3 -10 -7 -10 -5 0 -19 -17 -33 -38 -14 -20 -31 -43 -38 -51 -18 -18
-113 -166 -143 -221 -13 -25 -27 -49 -32 -55 -4 -5 -31 -46 -60 -90 -28 -44
-59 -89 -68 -100 -10 -11 -40 -49 -68 -85 -82 -105 -119 -146 -251 -280 -131
-132 -262 -255 -278 -261 -5 -2 -27 -18 -48 -36 -370 -302 -940 -577 -1414
-683 -326 -72 -537 -99 -860 -108 -434 -13 -857 26 -1290 118 -52 11 -115 24
-140 30 -85 18 -355 89 -415 109 l-60 20 45 -5 c25 -3 65 -9 90 -14 94 -18
269 -41 455 -60 133 -14 669 -14 787 0 438 51 740 125 1020 249 26 12 50 21
53 21 27 0 359 182 476 260 302 205 598 493 830 810 75 103 169 246 169 258 0
6 3 12 8 14 8 3 71 107 132 218 68 125 200 404 200 424 0 7 4 16 9 22 17 18
164 407 196 519 10 33 21 69 26 80 4 11 13 38 19 60 6 22 15 49 20 60 5 11 28
74 50 140 91 263 186 501 276 693 19 40 34 76 34 79 0 9 151 313 186 373 17
30 47 84 66 120 19 36 49 89 66 118 18 29 32 55 32 58 0 3 5 10 10 17 6 7 37
55 70 107 68 108 61 98 140 210 103 149 194 270 217 292 13 12 23 27 23 35 0
7 4 13 8 13 4 0 35 33 68 72 116 142 411 441 520 528 11 8 42 34 69 56 28 23
91 71 140 108 50 37 98 74 108 82 9 8 20 14 23 14 9 0 159 103 162 112 2 4 8
8 12 8 5 0 33 14 62 31 136 81 313 170 468 236 19 8 43 19 52 24 10 5 25 9 33
9 8 0 15 5 15 10 0 6 10 10 23 10 13 0 27 4 32 8 6 5 36 17 67 26 67 21 68 15
-26 119 -31 34 -77 86 -102 115 -28 31 -55 52 -67 52 -52 0 -403 -119 -567
-192 -84 -37 -285 -138 -335 -169 -27 -16 -58 -32 -67 -36 -10 -3 -18 -9 -18
-14 0 -5 -5 -9 -11 -9 -6 0 -29 -12 -52 -27 -23 -16 -50 -32 -59 -38 -33 -20
-203 -139 -214 -149 -6 -6 -23 -20 -39 -31 -28 -20 -96 -75 -105 -86 -3 -3
-15 -12 -28 -21 -93 -63 -477 -447 -574 -574 -12 -16 -25 -31 -28 -34 -3 -3
-21 -25 -40 -50 -19 -25 -45 -56 -57 -70 -13 -14 -23 -28 -23 -31 0 -3 -13
-22 -30 -40 -16 -19 -30 -37 -30 -40 0 -3 -9 -17 -21 -30 -12 -13 -37 -49 -57
-79 -20 -30 -39 -57 -42 -60 -10 -10 -70 -98 -70 -104 0 -4 -15 -28 -33 -54
-104 -148 -256 -421 -408 -730 -54 -111 -99 -205 -99 -207 0 -3 -16 -39 -35
-81 -19 -41 -35 -78 -35 -80 0 -3 -11 -29 -24 -57 -29 -64 -109 -267 -142
-362 -14 -38 -29 -79 -34 -90 -21 -45 -70 -197 -99 -305 -32 -125 -100 -330
-132 -397 -10 -24 -19 -45 -19 -49 0 -12 -140 -314 -150 -324 -6 -6 -12 -17
-61 -110 -18 -36 -37 -69 -42 -75 -21 -27 -87 -137 -87 -145 0 -4 -4 -10 -8
-12 -5 -1 -37 -46 -73 -98 -35 -52 -70 -101 -77 -108 -7 -8 -25 -30 -40 -50
-15 -21 -29 -39 -32 -42 -3 -3 -34 -39 -69 -80 -91 -105 -270 -283 -371 -366
-139 -116 -330 -254 -351 -254 -5 0 -9 -4 -9 -10 0 -5 -4 -10 -9 -10 -5 0 -45
-21 -88 -48 -94 -57 -255 -137 -398 -197 -29 -12 -91 -35 -197 -74 -51 -18
-162 -51 -240 -71 -21 -6 -55 -14 -75 -20 -21 -5 -74 -17 -118 -26 -165 -34
-178 -31 -50 11 44 14 89 30 100 35 11 4 51 20 90 35 90 34 239 107 340 165
97 56 269 170 273 182 2 4 8 8 13 8 10 0 12 2 114 86 75 62 162 142 228 213
23 24 50 51 60 60 10 9 44 47 75 86 31 38 67 81 80 95 12 14 22 28 22 31 0 3
11 19 25 35 42 49 159 228 236 361 126 217 226 442 330 743 42 120 51 152 94
310 14 52 29 111 35 130 64 232 119 538 165 920 78 637 146 1021 266 1505 55
220 129 478 154 540 7 17 16 46 20 65 4 19 11 40 15 45 4 6 13 28 19 50 16 53
49 140 72 192 11 24 19 47 19 52 0 9 26 72 66 159 13 29 24 55 24 58 0 10 43
100 135 284 82 163 119 232 216 395 34 59 221 338 236 353 7 8 26 30 41 50 15
21 29 39 32 42 3 3 21 25 40 50 19 25 37 47 40 50 3 3 39 43 80 90 129 146
363 369 431 411 18 10 2 27 -56 60 -22 12 -67 37 -100 56 -102 57 -566 283
-581 283 -2 0 -32 13 -66 28 -35 16 -124 52 -198 81 -74 29 -144 56 -155 61
-11 4 -36 13 -55 20 -19 7 -44 16 -55 21 -28 11 -304 102 -395 129 -41 13 -93
28 -115 35 -37 12 -366 94 -460 115 -22 5 -60 13 -85 19 -25 6 -72 15 -105 21
-33 6 -80 15 -105 20 -132 25 -249 43 -535 79 -355 45 -979 64 -1345 40z m437
-10025 c-3 -3 -12 -4 -19 -1 -8 3 -5 6 6 6 11 1 17 -2 13 -5z"/>
</g>
</svg>
